<svg xmlns="http://www.w3.org/2000/svg" viewBox="0 0 1085.3333 1112" height="1112" width="1085.333"><defs><clipPath id="a"><path d="M105 134h600.999v628h-600.999z"/></clipPath><clipPath id="b"><path d="M0 834h814v-834h-814z"/></clipPath></defs><g><path d="M141.333 414.667h794.667v514.667h-794.667z" fill="#fff"/><path d="M141.333 929.333h794.667v-514.667h-794.667z" fill="#fff"/><path d="M198.659 135.811c0 7.826-6.02 14.146-13.845 14.146-7.825 0-13.845-6.32-13.845-14.146 0-7.525 6.02-13.845 13.845-13.845 7.825 0 13.845 6.32 13.845 13.845m-3.992 48.177v133.609c0 28.292-11.674 43.34-36.656 43.34-3.009 0-6-.601-8.666-1.204v-15.785h5.975c14.447 0 19.352-7.089 19.352-25.748v-134.212z" fill="#fff" clip-path="url(#a)"/><g clip-path="url(#b)"><path d="M227.574 243.285c0 28.292 16.553 46.35 39.126 46.35 24.379 0 38.524-20.467 38.524-45.749 0-24.98-13.845-45.747-38.222-45.747-23.477 0-39.427 18.961-39.427 45.146m77.741-40.932v-18.338h18.662v119.97h-18.662v-20.972c-5.332 10.836-19.307 24.078-41.278 24.078-32.204 0-55.702-25.282-55.702-63.204 0-38.524 25.615-63.203 58.12-63.203 21.369 0 34.861 12.641 38.86 21.669" fill="#fff"/><path d="M353.406 184l36.719 92.999 36.717-92.999h18.962l-69.825 174.623h-18.962l23.777-58.568-47.552-116.055z" fill="#fff"/><path d="M457.93 184l30.699 82.745 34.311-80.079h3.31l34.01 80.079 30.698-82.745h19.564l-46.952 121.303h-3.009l-36.116-83.067-36.418 83.067h-3.311l-46.651-121.303z" fill="#fff"/><path d="M625.003 243.285c0 28.292 16.553 46.35 39.126 46.35 24.379 0 38.524-20.467 38.524-45.749 0-24.98-13.845-45.747-38.222-45.747-23.475 0-39.427 18.961-39.427 45.146m77.645-40.932v-18.338h18.662v119.97h-18.662v-20.972c-5.332 10.836-19.259 24.078-41.23 24.078-32.204 0-55.678-25.282-55.678-63.204 0-38.524 25.58-63.203 58.085-63.203 21.369 0 34.823 12.641 38.822 21.669" fill="#fff"/><path d="M750.91 184l36.719 92.999 36.719-92.999h18.961l-69.824 174.623h-18.962l23.777-58.568-47.553-116.055z" fill="#fff"/><path d="M862.594 292.958c0 7.825-6.621 14.146-14.447 14.146-8.126 0-14.446-6.321-14.446-14.146 0-8.126 6.32-14.747 14.446-14.747 7.826 0 14.447 6.621 14.447 14.747" fill="#fff"/><path d="M708.043 641.704c4.303 4.59 9.083 7.983 14.343 10.184 5.259 2.198 11.236 3.299 17.93 3.299 7.551 0 13.673-1.148 18.359-3.443 4.684-2.294 8.341-5.163 10.972-8.606 2.629-3.442 4.231-7.221 5.14-11.332.908-4.112 1.196-7.985 1.196-11.617v-66.834h-9.331v11.997h-.088c-1.914-2.666-3.97-4.973-6.168-6.648-2.201-1.672-4.424-3.119-6.67-4.076-2.247-.954-4.495-1.692-6.741-2.074-2.247-.381-4.375-.607-6.382-.607-4.973 0-9.539.868-13.698 2.637-4.16 1.77-7.746 4.223-10.757 7.378-3.013 3.157-5.38 6.834-7.101 11.041-1.721 4.208-2.582 8.747-2.582 13.623 0 4.877.908 9.419 2.726 13.626 1.816 4.208 4.303 7.817 7.458 10.828 3.155 3.013 6.861 5.379 11.116 7.1 4.254 1.722 8.822 2.582 13.698 2.582 4.877 0 9.514-1.021 13.914-2.935 4.396-1.912 8.126-4.487 11.188-9.819h.088v12.181c0 3.632-.356 7.05-1.264 10.255-.909 3.203-2.341 6-4.396 8.391-2.058 2.389-4.733 4.279-8.079 5.665-3.348 1.385-7.399 2.081-12.18 2.081-5.451 0-10.392-1.125-14.839-3.371-4.447-2.247-8.054-5.236-10.827-8.964zm10.685-65.334c1.292-3.106 3.059-5.832 5.308-8.175 2.245-2.342 4.876-4.207 7.889-5.595 3.011-1.385 6.286-2.079 9.826-2.079 3.919 0 7.458.694 10.613 2.079 3.155 1.388 5.832 3.253 8.033 5.595 2.198 2.343 3.872 5.069 5.02 8.175 1.148 3.109 1.721 6.432 1.721 9.97.095 3.922-.501 7.458-1.793 10.613-1.29 3.155-3.133 5.859-5.523 8.105-2.39 2.247-5.14 3.994-8.247 5.235-3.109 1.244-6.382 1.865-9.824 1.865-3.539 0-6.814-.693-9.826-2.079-3.013-1.385-5.644-3.25-7.889-5.595-2.249-2.342-4.016-5.067-5.308-8.175-1.29-3.106-1.936-6.43-1.936-9.968 0-3.538.645-6.861 1.936-9.97m-91.008-23.014c.191 0 .149 5.256.293 8.029.144 2.775.007 5.209.007 7.025v52.929h9.331v-34.999c0-6.118 1.23-10.901 3.145-14.344 1.912-3.442 4.227-6.024 6.665-7.745 2.438-1.722 4.824-2.773 7.025-3.157 2.199-.38 3.571-.573 4.051-.573 6.98 0 11.54 1.986 14.122 5.953 2.581 3.968 3.65 9.682 3.65 17.14v37.725h9.331v-43.176c0-8.413-1.75-14.892-5.86-19.435-4.112-4.54-10.317-6.813-18.923-6.813-2.201 0-4.347.312-6.593.932-2.247.624-4.336 1.484-6.344 2.582-2.009 1.101-3.807 2.229-5.432 3.758-1.628 1.53-2.946 3.5-3.996 4.833h-.288c0-1.333-.024-3.562-.071-5.332-.049-1.769-.168-2.666-.359-5.332zm-23.694 0h-9.331v67.983h9.331zm-.115-30.487c-1.434-1.29-3.013-1.936-4.733-1.936-1.721 0-3.299.645-4.733 1.936-1.434 1.292-2.151 2.941-2.151 4.949 0 2.007.717 3.658 2.151 4.948 1.434 1.29 3.013 1.937 4.733 1.937 1.721 0 3.299-.647 4.733-1.937 1.434-1.29 2.151-2.941 2.151-4.948 0-2.009-.717-3.658-2.151-4.949m-27.878 30.487h-51.987v9.331h37.696l-39.029 51.191v7.461h54.653v-9.331h-41.155l39.822-51.487zm-70.649 0h-9.331v67.983h9.331zm-.44-30.487c-1.434-1.29-3.013-1.936-4.733-1.936-1.721 0-3.299.645-4.733 1.936-1.434 1.292-2.151 2.941-2.151 4.949 0 2.007.717 3.658 2.151 4.948 1.434 1.29 3.013 1.937 4.733 1.937 1.721 0 3.299-.647 4.733-1.937 1.434-1.29 2.151-2.941 2.151-4.948 0-2.009-.717-3.658-2.151-4.949m-26.22 30.487h-19.995v-18.662h-9.331v18.662h-13.33v9.331h13.33v41.868c0 3.73.758 6.741 1.813 9.036 1.05 2.295 2.506 4.112 4.132 5.451 1.625 1.34 3.476 2.245 5.437 2.725 1.96.477 3.878.717 5.696.717 4.971 0 9.242-.813 12.779-2.438l-.423-8.75c-1.434.766-3.009 1.388-4.729 1.865-1.721.48-3.394.717-5.019.717-1.434 0-2.749-.165-3.943-.501-1.197-.335-2.223-.933-3.083-1.793-.861-.861-1.833-2.081-2.31-3.658-.48-1.578-1.02-3.608-1.02-6.096v-39.144h19.995zm-58.652 0h-10.664v67.983h10.664zm-.612-30.487c-1.434-1.29-3.013-1.936-4.733-1.936-1.721 0-3.299.645-4.733 1.936-1.434 1.292-2.151 2.941-2.151 4.949 0 2.007.717 3.658 2.151 4.948 1.434 1.29 3.013 1.937 4.733 1.937 1.721 0 3.299-.647 4.733-1.937 1.434-1.29 2.151-2.941 2.151-4.948 0-2.009-.717-3.658-2.151-4.949m-102.841 118.836c4.303 4.59 9.083 7.983 14.343 10.184 5.259 2.198 11.236 3.299 17.93 3.299 7.551 0 13.673-1.148 18.359-3.443 4.684-2.294 8.341-5.163 10.972-8.606 2.629-3.442 4.658-7.221 5.568-11.332.908-4.112 1.622-7.985 1.622-11.617v-66.834h-9.331v11.997h-.942c-1.914-2.666-3.97-4.973-6.168-6.648-2.201-1.672-4.424-3.119-6.67-4.076-2.247-.954-4.495-1.692-6.741-2.074-2.247-.381-4.375-.607-6.382-.607-4.973 0-9.539.868-13.698 2.637-4.16 1.77-7.746 4.223-10.757 7.378-3.013 3.157-5.38 6.834-7.101 11.041-1.721 4.208-2.582 8.747-2.582 13.623 0 4.877.908 9.419 2.726 13.626 1.816 4.208 4.303 7.817 7.458 10.828 3.155 3.013 6.861 5.379 11.116 7.1 4.254 1.722 8.822 2.582 13.698 2.582 4.877 0 9.514-1.021 13.914-2.935 4.398-1.912 8.126-4.487 11.188-9.819h.942v12.181c0 3.632-.782 7.05-1.69 10.255-.91 3.203-2.555 6-4.611 8.391-2.057 2.389-4.84 4.279-8.186 5.665-3.348 1.385-7.453 2.081-12.233 2.081-5.451 0-10.419-1.125-14.866-3.371-4.447-2.247-8.067-5.236-10.84-8.964zm10.685-65.334c1.292-3.106 3.059-5.832 5.308-8.175 2.245-2.342 4.876-4.207 7.889-5.595 3.011-1.385 6.286-2.079 9.826-2.079 3.919 0 7.458.694 10.613 2.079 3.155 1.388 5.832 3.253 8.033 5.595 2.198 2.343 3.872 5.069 5.02 8.175 1.148 3.109 1.721 6.432 1.721 9.97.095 3.922-.501 7.458-1.793 10.613-1.29 3.155-3.133 5.859-5.523 8.105-2.39 2.247-5.14 3.994-8.247 5.235-3.109 1.244-6.382 1.865-9.824 1.865-3.539 0-6.814-.693-9.826-2.079-3.013-1.385-5.644-3.25-7.889-5.595-2.249-2.342-4.016-5.067-5.308-8.175-1.29-3.106-1.936-6.43-1.936-9.968 0-3.538.645-6.861 1.936-9.97m-33.868-23.014h-9.331v67.983h9.331zm.521-30.487c-1.434-1.29-3.013-1.936-4.733-1.936-1.721 0-3.299.645-4.733 1.936-1.434 1.292-2.151 2.941-2.151 4.949 0 2.007.717 3.658 2.151 4.948 1.434 1.29 3.013 1.937 4.733 1.937 1.721 0 3.299-.647 4.733-1.937 1.434-1.29 2.151-2.941 2.151-4.948 0-2.009-.717-3.658-2.151-4.949m-33.846-10.836h-9.331v53.32h-.569c-1.53-2.666-3.348-4.519-5.451-6.145-2.105-1.625-4.303-3.095-6.598-4.148-2.294-1.052-4.662-1.882-7.1-2.362-2.438-.477-4.757-.749-6.957-.749-5.26 0-10.064.868-14.415 2.637-4.352 1.77-8.103 4.223-11.26 7.378-3.155 3.157-5.619 6.881-7.386 11.184-1.77 4.303-2.654 8.987-2.654 14.055 0 5.069.884 9.752 2.654 14.055 1.768 4.303 4.231 8.031 7.386 11.188 3.157 3.155 6.908 5.617 11.26 7.386 4.351 1.768 9.155 2.653 14.415 2.653 2.199 0 4.519-.24 6.957-.717 2.438-.479 4.805-1.241 7.1-2.294 2.295-1.052 4.494-2.506 6.598-4.134 2.102-1.625 3.92-3.331 5.451-5.997h.569v11.997h9.331zm-59.6 64.696c1.194-3.25 2.891-6.07 5.092-8.462 2.198-2.39 4.852-4.279 7.959-5.667 3.107-1.385 6.621-2.079 10.543-2.079 3.824 0 7.387.694 10.687 2.079 3.299 1.388 6.142 3.277 8.534 5.667 2.389 2.391 4.254 5.212 5.595 8.462 1.337 3.253 2.007 6.741 2.007 10.471 0 3.73-.67 7.221-2.007 10.471-1.341 3.253-3.206 6.073-5.595 8.463-2.391 2.391-5.235 4.28-8.534 5.665-3.299 1.388-6.862 2.079-10.687 2.079-3.922 0-7.435-.692-10.543-2.079-3.107-1.385-5.761-3.274-7.959-5.665-2.201-2.39-3.898-5.211-5.092-8.463-1.197-3.25-1.793-6.741-1.793-10.471 0-3.73.596-7.218 1.793-10.471"/><path d="M520.105 712.992c-2.201-4.398-5.307-7.506-9.323-9.323-4.016-1.816-8.369-2.726-13.053-2.726-3.155 0-6.217.408-9.18 1.22-2.965.813-5.619 2.033-7.961 3.658-2.343 1.628-4.208 3.73-5.593 6.31-1.388 2.582-2.079 5.595-2.079 9.036 0 3.157.668 5.809 2.007 7.961 1.338 2.151 2.941 3.898 4.805 5.236 1.865 1.34 3.776 2.343 5.737 3.011 1.958.67 3.514 1.148 4.662 1.434l9.18 2.151c3.536.861 6.548 2.033 9.036 3.515 2.485 1.484 3.728 3.898 3.728 7.244 0 1.913-.455 3.586-1.362 5.02-.91 1.434-2.105 2.606-3.586 3.514-1.484.91-3.181 1.578-5.092 2.007-1.914.431-3.826.647-5.737.647-4.016 0-7.483-.908-10.399-2.726-2.918-1.816-5.332-4.254-7.244-7.316l-8.175 5.595c3.155 4.783 6.956 8.154 11.402 10.112 4.447 1.958 9.251 2.941 14.415 2.941 3.25 0 6.454-.384 9.61-1.148 3.157-.764 5.953-1.984 8.391-3.658 2.438-1.672 4.398-3.823 5.881-6.454 1.481-2.629 2.223-5.76 2.223-9.395 0-4.78-1.556-8.772-4.662-11.977-3.109-3.202-7.006-5.329-11.69-6.382l-9.61-2.295c-4.4-1.05-7.699-2.294-9.898-3.728-2.201-1.434-3.299-3.73-3.299-6.885 0-1.816.405-3.346 1.22-4.591.81-1.241 1.886-2.27 3.227-3.083 1.338-.812 2.843-1.41 4.518-1.793 1.673-.381 3.322-.573 4.949-.573 3.442 0 6.357.813 8.748 2.438 2.39 1.626 4.303 3.826 5.737 6.597zm-81.901 15.004c-4.016 0-8.439.508-13.267.889-4.829.383-9.372 1.497-13.626 3.026-4.256 1.53-7.795 3.928-10.615 7.036-2.822 3.109-4.231 7.426-4.231 12.877 0 3.251.645 6.116 1.937 8.554 1.29 2.438 3.011 4.506 5.163 6.177 2.151 1.674 4.612 2.923 7.387 3.734 2.773.812 5.641 1.222 8.606 1.222 5.451 0 10.063-1.098 13.842-3.058 3.776-1.958 7.05-4.466 9.824-9.798h.288c0 2.666.071 3.563.215 5.475.144 1.914.359 3.856.645 5.189h9.18c-.287-1.333-.745-3.899-.982-6.721-.24-2.819-.553-5.285-.553-7.867v-29.978c0-4.11-.476-7.649-1.814-10.613-1.34-2.963-3.011-5.427-5.209-7.387-2.201-1.958-4.757-3.418-7.769-4.375-3.013-.954-6.121-1.434-9.371-1.434-12.622 0-22.077 3.253-28.389 9.754l5.744 6.742c5.832-5.259 12.546-7.889 20.388-7.889 11.474 0 17.089 5.787 17.089 17.354v1.092zm4.482 7.998v5.255c0 2.965-.281 5.761-1.093 8.39-.813 2.631-2.017 4.927-3.738 6.885-1.721 1.961-3.819 3.515-6.352 4.662-2.534 1.148-5.507 1.722-8.948 1.722-1.914 0-3.794-.216-5.659-.647-1.864-.429-3.559-1.146-5.088-2.151-1.53-1.004-2.747-2.294-3.655-3.872-.91-1.577-1.361-3.464-1.361-5.665 0-3.346 1.17-5.975 3.514-7.889 2.342-1.912 5.164-3.322 8.463-4.232 3.299-.906 6.741-1.67 10.327-1.91 3.586-.237 6.574-.547 8.966-.547zm-61.318 2.666v-4.154c0-4.59-.913-8.915-2.347-12.981-1.434-4.063-3.614-7.602-6.338-10.613-2.725-3.013-6.145-5.427-10.161-7.244-4.016-1.816-8.583-2.726-13.651-2.726-4.781 0-9.24.886-13.351 2.654-4.112 1.77-7.705 4.231-10.764 7.387-3.061 3.155-5.453 6.884-7.174 11.188-1.721 4.303-2.583 8.988-2.583 14.056 0 5.069.882 9.754 2.653 14.056 1.769 4.303 4.182 8.031 7.244 11.188 3.059 3.155 6.716 5.619 10.972 7.386 4.254 1.769 8.868 2.654 13.842 2.654 5.544 0 10.732-1.101 15.561-3.299 4.828-2.198 9.252-5.832 13.269-10.901l-7.316-6.024c-1.914 3.061-4.711 5.761-8.391 8.103-3.682 2.345-8.057 3.515-13.123 3.515-3.348 0-6.456-.621-9.324-1.865-2.869-1.242-5.403-2.941-7.602-5.092-2.201-2.151-3.968-4.784-5.307-7.749-1.34-2.963-2.151-5.543-2.438-9.542zm-56.046-7.998s.645-5.249 1.937-7.831c1.29-2.582 3.011-4.776 5.163-6.784 2.151-2.009 4.663-3.558 7.531-4.755 2.869-1.194 5.831-1.768 8.892-1.768 6.885 0 12.238 1.797 16.064 5.763 3.824 3.97 5.739 8.71 5.739 15.375zm-29.266-69.316h-9.331v51.987h-.416c-1.53-1.333-3.348-3.994-5.451-5.621-2.105-1.625-4.303-2.833-6.598-3.886-2.294-1.052-4.662-1.752-7.1-2.23-2.438-.477-4.757-.685-6.957-.685-5.26 0-10.064.901-14.415 2.67-4.352 1.77-8.103 4.239-11.259 7.394-3.157 3.157-5.619 6.889-7.387 11.193-1.77 4.303-2.654 8.991-2.654 14.058 0 5.069.884 9.755 2.654 14.058 1.769 4.303 4.231 8.033 7.387 11.188 3.155 3.157 6.906 5.619 11.259 7.387 4.351 1.768 9.155 2.654 14.415 2.654 2.199 0 4.519-.24 6.957-.717 2.438-.48 4.805-1.242 7.1-2.295 2.295-1.05 4.494-2.363 6.598-3.991 2.102-1.625 3.92-3.189 5.451-5.855h.416v10.664h9.331zm-59.446 64.412c1.194-3.25 2.891-6.072 5.092-8.463 2.198-2.389 4.852-4.279 7.961-5.665 3.106-1.385 6.62-2.079 10.541-2.079 3.824 0 7.387.694 10.687 2.079 3.299 1.386 6.142 3.277 8.534 5.665 2.389 2.391 4.254 5.213 5.595 8.463 1.337 3.251 2.007 6.741 2.007 10.471 0 3.728-.67 7.221-2.007 10.471-1.341 3.251-3.206 6.073-5.595 8.462-2.391 2.391-5.235 4.28-8.534 5.665-3.299 1.388-6.862 2.081-10.687 2.081-3.922 0-7.435-.693-10.541-2.081-3.109-1.385-5.763-3.274-7.961-5.665-2.201-2.389-3.898-5.211-5.092-8.462-1.197-3.25-1.793-6.742-1.793-10.471 0-3.73.596-7.22 1.793-10.471m-32.531-23.089h-9.331v66.65h9.331zm.475-30.771c-1.434-1.292-3.013-1.937-4.733-1.937-1.721 0-3.299.645-4.733 1.937-1.434 1.29-2.151 2.941-2.151 4.948 0 2.009.717 3.658 2.151 4.948 1.434 1.292 3.013 1.937 4.733 1.937 1.721 0 3.299-.645 4.733-1.937 1.434-1.29 2.151-2.939 2.151-4.948 0-2.007-.717-3.658-2.151-4.948"/><path d="M553.35 674.667l7.818 13.413 7.663-13.413h.689l4.292 22.661h-3.679l-2.835-14.031-5.901 10.032h-.613l-5.747-9.958-2.606 13.957h-3.756l3.984-22.661zm-8.014 0v2.666h-6.665v19.995h-3.999v-19.995h-6.665v-2.666z"/></g></g></svg>