<svg xmlns="http://www.w3.org/2000/svg" viewBox="0 0 122 22.3" enable-background="new 0 0 122 22.3"><g fill="#444545"><path d="M53.2 2.6c-1.2.1-2 .1-2.5.7l-1.8 2.5h9.1l-1.1 1.6h-9.1s-1.6 2.2-1.8 2.6c-.4.7 0 1 .6 1h11.8l-1.3 1.5h-10.9c-2.3 0-3.6-.4-3.9-1.3-.1-.3-.1-.7.1-1l4.7-7c.7-1.1 2.1-1.8 3.7-2 .9-.1 1.8-.2 2.7-.2h11l-1.3 1.5h-10zM92.2 2.6c-1.2.1-2 .1-2.5.7l-1.8 2.5h9.1l-1.1 1.6h-9.1s-1.6 2.2-1.8 2.6c-.4.7 0 1 .6 1h11.8l-1.3 1.5h-10.9c-2.3 0-3.6-.4-3.9-1.3-.1-.3-.1-.7.1-1l4.7-7c.7-1.1 2.1-1.8 3.7-2 .9-.1 1.8-.2 2.7-.2h11l-1.3 1.5h-10zM77.9 10.4c-.7 1.4-2.7 2.1-5.9 2.1h-11.8l7.9-11.4h11.1c.8 0 1.4 0 2.1.2.8.2 1.9 1 1.3 2.1-.8 1-4.7 7-4.7 7zm-.3-7.8h-7l-5.6 8.4h7.6c.8 0 1.4-.2 1.7-.6 0 0 4.3-6.4 4.7-7 .4-.7-.8-.8-1.4-.8zM108.3 9.3l10.1-8.2h3.6l-14.1 11.3h-3.2l1.3-11.3h3.4l-1.1 8.2zM52.2 20.2h-.5c-.5.2-1.8.8-4.1.2-4-.9-5.6-3.1-7.5-7.9-.9-2.1-1.6-4.2-2.7-5.1h1.4c1.2 0 2.2-.4 2.5-1.1.4-.7 1.7-2.9 1.8-3.6.1-.7-.5-1.2-1.3-1.4-.6-.2-1.3-.2-2.1-.2h-11.2l-7.5 11.4h3.8l3.2-5.1h4c.7 0 1.7.4 2.2 1 1.4 1.5 3.6 7.2 6.7 10.2 1.5 1.5 3.1 2.6 4.8 3 1.5.4 3 .5 4.4.1 1.4-.3 2.2-.8 2.3-1.3 0 0 0-.1-.2-.2zm-21.3-17.6h7.4c1.5 0 1.7.4 1.4.8-.3.5-1 1.5-1 1.5-.4.6-1 .9-1.8.9h-7.9l1.9-3.2zM26.5.2h-3.1l-1.7 1c-.4-.1-.9-.1-1.5-.1 0 0-5-.1-6.3 0-1.3.1-1.8.1-2.7.2-1.6.2-2.6.4-3.7 2-.8 1.2-4.7 7-4.7 7-.2.3-.2.6-.1 1 .1.2.2.4.4.5l-2.9 1.6h3.1l1.8-1c.4 0 1 .1 1.5.1h6.4c3.2 0 4.9-.5 5.9-2.1 0 0 4.4-6.8 4.5-7 .3-.6.2-1.1-.1-1.4l3.2-1.8zm-15.3 3.1c.4-.6 1.6-.7 2.5-.7h5.5l-12.6 7.2c.9-1.3 4.6-6.5 4.6-6.5zm4.2 7.1c-.3.4-.9.6-1.7.6h-6l11.9-6.8c-1.1 1.7-3.7 5.5-4.2 6.2z"/></g></svg>