<svg
   xmlns:dc="http://purl.org/dc/elements/1.1/"
   xmlns:cc="http://creativecommons.org/ns#"
   xmlns:rdf="http://www.w3.org/1999/02/22-rdf-syntax-ns#"
   xmlns:svg="http://www.w3.org/2000/svg"
   xmlns="http://www.w3.org/2000/svg"
   viewBox="0 0 1085.3333 1112"
   height="1112"
   width="1085.3333"
   xml:space="preserve"
   id="svg2"
   version="1.1"><metadata
     id="metadata8"><rdf:RDF><cc:Work
         rdf:about=""><dc:format>image/svg+xml</dc:format><dc:type
           rdf:resource="http://purl.org/dc/dcmitype/StillImage" /></cc:Work></rdf:RDF></metadata><defs
     id="defs6"><clipPath
       id="clipPath22"
       clipPathUnits="userSpaceOnUse"><path
         id="path20"
         d="M 105,134 H 705.999 V 762 H 105 Z" /></clipPath><clipPath
       id="clipPath34"
       clipPathUnits="userSpaceOnUse"><path
         id="path32"
         d="M 0,834 H 814 V 0 H 0 Z" /></clipPath></defs><g
     transform="matrix(1.3333333,0,0,-1.3333333,0,1112)"
     id="g10"><path
       id="path12"
       style="fill:#ffffff;fill-opacity:1;fill-rule:nonzero;stroke:none"
       d="M 106,523 H 702 V 137 H 106 Z" /><path
       id="path14"
       style="fill:#ffffff;fill-opacity:1;fill-rule:nonzero;stroke:none"
       d="M 106,137 H 702 V 523 H 106 Z" /><g
       id="g16"><g
         clip-path="url(#clipPath22)"
         id="g18"><g
           transform="translate(148.9946,732.1416)"
           id="g24"><path
             id="path26"
             style="fill:#ffffff;fill-opacity:1;fill-rule:nonzero;stroke:none"
             d="m 0,0 c 0,-5.871 -4.516,-10.612 -10.386,-10.612 -5.87,0 -10.386,4.741 -10.386,10.612 0,5.645 4.516,10.386 10.386,10.386 C -4.516,10.386 0,5.645 0,0 m -2.995,-36.142 v -100.232 c 0,-21.224 -8.758,-32.513 -27.499,-32.513 -2.257,0 -4.501,0.451 -6.501,0.903 v 11.842 h 4.482 c 10.838,0 14.518,5.318 14.518,19.316 v 100.684 z" /></g></g></g><g
       id="g28"><g
         clip-path="url(#clipPath34)"
         id="g30"><g
           transform="translate(170.6802,651.5361)"
           id="g36"><path
             id="path38"
             style="fill:#ffffff;fill-opacity:1;fill-rule:nonzero;stroke:none"
             d="m 0,0 c 0,-21.224 12.418,-34.771 29.352,-34.771 18.289,0 28.9,15.354 28.9,34.32 0,18.74 -10.386,34.319 -28.674,34.319 C 11.966,33.868 0,19.644 0,0 m 58.32,30.707 v 13.757 h 14 v -90 h -14 v 15.733 c -4,-8.129 -14.484,-18.063 -30.966,-18.063 -24.159,0 -41.787,18.966 -41.787,47.415 0,28.9 19.216,47.414 43.601,47.414 16.031,0 26.152,-9.483 29.152,-16.256" /></g><g
           transform="translate(265.0542,696)"
           id="g40"><path
             id="path42"
             style="fill:#ffffff;fill-opacity:1;fill-rule:nonzero;stroke:none"
             d="M 0,0 27.546,-69.767 55.091,0 H 69.316 L 16.934,-131 H 2.709 L 20.546,-87.063 -15.127,0 Z" /></g><g
           transform="translate(343.4473,696)"
           id="g44"><path
             id="path46"
             style="fill:#ffffff;fill-opacity:1;fill-rule:nonzero;stroke:none"
             d="M 0,0 23.03,-62.074 48.77,-2 h 2.483 L 76.767,-62.074 99.796,0 h 14.677 L 79.25,-91 H 76.993 L 49.899,-28.684 22.579,-91 H 20.095 L -14.902,0 Z" /></g><g
           transform="translate(468.752,651.5361)"
           id="g48"><path
             id="path50"
             style="fill:#ffffff;fill-opacity:1;fill-rule:nonzero;stroke:none"
             d="m 0,0 c 0,-21.224 12.418,-34.771 29.352,-34.771 18.289,0 28.9,15.354 28.9,34.32 0,18.74 -10.386,34.319 -28.674,34.319 C 11.967,33.868 0,19.644 0,0 m 58.248,30.707 v 13.757 h 14 v -90 h -14 v 15.733 c -4,-8.129 -14.448,-18.063 -30.93,-18.063 -24.159,0 -41.769,18.966 -41.769,47.415 0,28.9 19.19,47.414 43.575,47.414 16.031,0 26.124,-9.483 29.124,-16.256" /></g><g
           transform="translate(563.1826,696)"
           id="g52"><path
             id="path54"
             style="fill:#ffffff;fill-opacity:1;fill-rule:nonzero;stroke:none"
             d="M 0,0 27.546,-69.767 55.092,0 H 69.316 L 16.935,-131 H 2.71 L 20.547,-87.063 -15.127,0 Z" /></g><g
           transform="translate(646.9453,614.2817)"
           id="g56"><path
             id="path58"
             style="fill:#ffffff;fill-opacity:1;fill-rule:nonzero;stroke:none"
             d="m 0,0 c 0,-5.87 -4.967,-10.612 -10.838,-10.612 -6.096,0 -10.837,4.742 -10.837,10.612 0,6.096 4.741,11.063 10.837,11.063 C -4.967,11.063 0,6.096 0,0" /></g><g
           transform="translate(531.032,352.7217)"
           id="g60"><path
             id="path62"
             style="fill:#000000;fill-opacity:1;fill-rule:nonzero;stroke:none"
             d="m 0,0 c 3.228,-3.443 6.814,-5.989 10.76,-7.64 3.945,-1.649 8.429,-2.475 13.451,-2.475 5.665,0 10.257,0.861 13.773,2.583 3.514,1.721 6.257,3.873 8.231,6.456 1.972,2.582 3.174,5.417 3.856,8.501 0.681,3.085 0.897,5.99 0.897,8.715 v 50.138 h -7 v -9 h -0.066 c -1.436,2 -2.978,3.731 -4.627,4.987 -1.651,1.254 -3.319,2.34 -5.004,3.058 -1.686,0.716 -3.372,1.269 -5.057,1.556 -1.686,0.286 -3.282,0.455 -4.788,0.455 -3.731,0 -7.156,-0.651 -10.276,-1.978 C 11.029,64.028 8.339,62.188 6.08,59.821 3.82,57.453 2.044,54.694 0.753,51.538 c -1.291,-3.157 -1.937,-6.562 -1.937,-10.22 0,-3.659 0.681,-7.066 2.045,-10.222 1.362,-3.157 3.228,-5.864 5.595,-8.123 2.367,-2.26 5.147,-4.035 8.339,-5.326 3.191,-1.292 6.618,-1.937 10.276,-1.937 3.659,0 7.137,0.766 10.438,2.202 3.298,1.434 6.096,3.366 8.393,7.366 h 0.066 V 16.14 c 0,-2.725 -0.267,-5.289 -0.948,-7.693 -0.682,-2.403 -1.756,-4.501 -3.298,-6.295 -1.544,-1.792 -3.551,-3.21 -6.061,-4.25 -2.512,-1.039 -5.551,-1.561 -9.137,-1.561 -4.089,0 -7.796,0.844 -11.132,2.529 C 10.056,0.556 7.35,2.798 5.27,5.595 Z m 8.016,49.013 c 0.969,2.33 2.295,4.375 3.982,6.133 1.684,1.757 3.658,3.156 5.918,4.197 2.259,1.039 4.716,1.56 7.371,1.56 2.94,0 5.595,-0.521 7.962,-1.56 2.367,-1.041 4.375,-2.44 6.026,-4.197 1.649,-1.758 2.905,-3.803 3.766,-6.133 0.861,-2.332 1.291,-4.825 1.291,-7.479 0.071,-2.942 -0.376,-5.595 -1.345,-7.962 -0.968,-2.367 -2.35,-4.395 -4.143,-6.08 -1.793,-1.686 -3.856,-2.996 -6.187,-3.927 -2.332,-0.933 -4.788,-1.399 -7.37,-1.399 -2.655,0 -5.112,0.52 -7.371,1.56 -2.26,1.039 -4.234,2.438 -5.918,4.197 -1.687,1.757 -3.013,3.801 -3.982,6.133 -0.968,2.33 -1.452,4.824 -1.452,7.478 0,2.654 0.484,5.147 1.452,7.479 m -68.273,17.265 c 0.143,0 0.112,-3.943 0.22,-6.023 0.108,-2.082 0.005,-3.908 0.005,-5.27 V 15.278 h 7 v 26.256 c 0,4.59 0.923,8.178 2.359,10.761 1.434,2.582 3.171,4.519 5,5.81 1.829,1.292 3.619,2.08 5.27,2.368 1.65,0.285 2.679,0.43 3.039,0.43 5.236,0 8.657,-1.49 10.594,-4.466 1.936,-2.977 2.738,-7.263 2.738,-12.858 V 15.278 h 7 v 32.39 c 0,6.311 -1.313,11.172 -4.396,14.58 -3.085,3.406 -7.74,5.111 -14.196,5.111 -1.651,0 -3.261,-0.234 -4.946,-0.699 -1.686,-0.468 -3.253,-1.113 -4.759,-1.937 -1.507,-0.826 -2.856,-1.672 -4.075,-2.819 -1.221,-1.148 -2.21,-2.626 -2.998,-3.626 h -0.216 c 0,1 -0.018,2.672 -0.053,4 -0.037,1.327 -0.126,2 -0.269,4 z m -17.775,0 h -7 v -51 h 7 z m -0.086,22.871 c -1.076,0.968 -2.26,1.452 -3.551,1.452 -1.291,0 -2.475,-0.484 -3.551,-1.452 -1.076,-0.969 -1.614,-2.206 -1.614,-3.713 0,-1.506 0.538,-2.744 1.614,-3.712 1.076,-0.968 2.26,-1.453 3.551,-1.453 1.291,0 2.475,0.485 3.551,1.453 1.076,0.968 1.614,2.206 1.614,3.712 0,1.507 -0.538,2.744 -1.614,3.713 M -99.032,66.278 h -39 v -7 h 28.279 l -29.279,-38.403 v -5.597 h 41 v 7 h -30.874 l 29.874,38.625 z m -53,0 h -7 v -51 h 7 z m -0.33,22.871 c -1.076,0.968 -2.26,1.452 -3.551,1.452 -1.291,0 -2.475,-0.484 -3.551,-1.452 -1.076,-0.969 -1.614,-2.206 -1.614,-3.713 0,-1.506 0.538,-2.744 1.614,-3.712 1.076,-0.968 2.26,-1.453 3.551,-1.453 1.291,0 2.475,0.485 3.551,1.453 1.076,0.968 1.614,2.206 1.614,3.712 0,1.507 -0.538,2.744 -1.614,3.713 m -19.67,-22.871 h -15 v 14 h -7 v -14 h -10 v -7 h 10 V 27.869 c 0,-2.798 0.569,-5.057 1.36,-6.779 0.788,-1.722 1.88,-3.085 3.1,-4.089 1.219,-1.005 2.608,-1.684 4.079,-2.044 1.47,-0.358 2.909,-0.538 4.273,-0.538 3.729,0 6.933,0.61 9.587,1.829 l -0.317,6.564 c -1.076,-0.575 -2.257,-1.041 -3.548,-1.399 -1.291,-0.36 -2.546,-0.538 -3.765,-0.538 -1.076,0 -2.062,0.124 -2.958,0.376 -0.898,0.251 -1.668,0.7 -2.313,1.345 -0.646,0.646 -1.375,1.561 -1.733,2.744 -0.36,1.184 -0.765,2.707 -0.765,4.573 v 29.365 h 15 z m -44,0 h -8 v -51 h 8 z m -0.459,22.871 c -1.076,0.968 -2.26,1.452 -3.551,1.452 -1.291,0 -2.475,-0.484 -3.551,-1.452 -1.076,-0.969 -1.614,-2.206 -1.614,-3.713 0,-1.506 0.538,-2.744 1.614,-3.712 1.076,-0.968 2.26,-1.453 3.551,-1.453 1.291,0 2.475,0.485 3.551,1.453 1.076,0.968 1.614,2.206 1.614,3.712 0,1.507 -0.538,2.744 -1.614,3.713 M -293.641,0 c 3.228,-3.443 6.814,-5.989 10.76,-7.64 3.945,-1.649 8.429,-2.475 13.451,-2.475 5.665,0 10.257,0.861 13.773,2.583 3.514,1.721 6.257,3.873 8.231,6.456 1.972,2.582 3.494,5.417 4.177,8.501 0.681,3.085 1.217,5.99 1.217,8.715 v 50.138 h -7 v -9 h -0.707 c -1.436,2 -2.978,3.731 -4.627,4.987 -1.651,1.254 -3.319,2.34 -5.004,3.058 -1.686,0.716 -3.372,1.269 -5.057,1.556 -1.686,0.286 -3.282,0.455 -4.788,0.455 -3.731,0 -7.156,-0.651 -10.276,-1.978 -3.121,-1.328 -5.811,-3.168 -8.07,-5.535 -2.26,-2.368 -4.036,-5.127 -5.327,-8.283 -1.291,-3.157 -1.937,-6.562 -1.937,-10.22 0,-3.659 0.681,-7.066 2.045,-10.222 1.362,-3.157 3.228,-5.864 5.595,-8.123 2.367,-2.26 5.147,-4.035 8.339,-5.326 3.191,-1.292 6.618,-1.937 10.276,-1.937 3.659,0 7.137,0.766 10.438,2.202 3.299,1.434 6.096,3.366 8.393,7.366 h 0.707 V 16.14 c 0,-2.725 -0.587,-5.289 -1.268,-7.693 -0.683,-2.403 -1.917,-4.501 -3.459,-6.295 -1.543,-1.792 -3.631,-3.21 -6.141,-4.25 -2.512,-1.039 -5.591,-1.561 -9.177,-1.561 -4.089,0 -7.816,0.844 -11.152,2.529 -3.336,1.686 -6.052,3.928 -8.132,6.725 z m 8.016,49.013 c 0.969,2.33 2.295,4.375 3.982,6.133 1.684,1.757 3.658,3.156 5.918,4.197 2.259,1.039 4.716,1.56 7.371,1.56 2.94,0 5.595,-0.521 7.962,-1.56 2.367,-1.041 4.375,-2.44 6.026,-4.197 1.649,-1.758 2.905,-3.803 3.766,-6.133 0.861,-2.332 1.291,-4.825 1.291,-7.479 0.071,-2.942 -0.376,-5.595 -1.345,-7.962 -0.968,-2.367 -2.35,-4.395 -4.143,-6.08 -1.793,-1.686 -3.856,-2.996 -6.187,-3.927 -2.332,-0.933 -4.788,-1.399 -7.37,-1.399 -2.655,0 -5.112,0.52 -7.371,1.56 -2.26,1.039 -4.234,2.438 -5.918,4.197 -1.687,1.757 -3.013,3.801 -3.982,6.133 -0.968,2.33 -1.452,4.824 -1.452,7.478 0,2.654 0.484,5.147 1.452,7.479 m -25.407,17.265 h -7 v -51 h 7 z m 0.391,22.871 c -1.076,0.968 -2.26,1.452 -3.551,1.452 -1.291,0 -2.475,-0.484 -3.551,-1.452 -1.076,-0.969 -1.614,-2.206 -1.614,-3.713 0,-1.506 0.538,-2.744 1.614,-3.712 1.076,-0.968 2.26,-1.453 3.551,-1.453 1.291,0 2.475,0.485 3.551,1.453 1.076,0.968 1.614,2.206 1.614,3.712 0,1.507 -0.538,2.744 -1.614,3.713 m -25.391,8.129 h -7 v -40 h -0.427 c -1.148,2 -2.512,3.39 -4.089,4.61 -1.579,1.219 -3.228,2.322 -4.95,3.112 -1.721,0.789 -3.497,1.412 -5.326,1.772 -1.829,0.358 -3.569,0.562 -5.219,0.562 -3.946,0 -7.55,-0.651 -10.814,-1.978 -3.265,-1.328 -6.079,-3.168 -8.447,-5.535 -2.367,-2.368 -4.215,-5.162 -5.541,-8.39 -1.328,-3.228 -1.991,-6.742 -1.991,-10.544 0,-3.803 0.663,-7.316 1.991,-10.544 1.326,-3.228 3.174,-6.025 5.541,-8.393 2.368,-2.367 5.182,-4.214 8.447,-5.541 3.264,-1.326 6.868,-1.99 10.814,-1.99 1.65,0 3.39,0.18 5.219,0.538 1.829,0.359 3.605,0.931 5.326,1.721 1.722,0.789 3.371,1.88 4.95,3.101 1.577,1.219 2.941,2.499 4.089,4.499 h 0.427 v -9 h 7 z m -44.711,-48.534 c 0.896,2.438 2.169,4.554 3.82,6.348 1.649,1.793 3.64,3.21 5.971,4.251 2.331,1.039 4.967,1.56 7.909,1.56 2.869,0 5.542,-0.521 8.017,-1.56 2.475,-1.041 4.608,-2.458 6.402,-4.251 1.792,-1.794 3.191,-3.91 4.197,-6.348 1.003,-2.44 1.506,-5.057 1.506,-7.855 0,-2.798 -0.503,-5.417 -1.506,-7.855 -1.006,-2.44 -2.405,-4.556 -4.197,-6.349 -1.794,-1.794 -3.927,-3.211 -6.402,-4.25 -2.475,-1.041 -5.148,-1.56 -8.017,-1.56 -2.942,0 -5.578,0.519 -7.909,1.56 -2.331,1.039 -4.322,2.456 -5.971,4.25 -1.651,1.793 -2.924,3.909 -3.82,6.349 -0.898,2.438 -1.345,5.057 -1.345,7.855 0,2.798 0.447,5.415 1.345,7.855" /></g><g
           transform="translate(390.0786,299.2557)"
           id="g64"><path
             id="path66"
             style="fill:#000000;fill-opacity:1;fill-rule:nonzero;stroke:none"
             d="m 0,0 c -1.651,3.299 -3.981,5.631 -6.994,6.994 -3.013,1.362 -6.278,2.045 -9.792,2.045 -2.367,0 -4.664,-0.306 -6.887,-0.915 -2.224,-0.61 -4.215,-1.525 -5.972,-2.744 -1.758,-1.221 -3.157,-2.798 -4.196,-4.734 -1.041,-1.937 -1.56,-4.197 -1.56,-6.779 0,-2.368 0.501,-4.358 1.506,-5.972 1.004,-1.614 2.206,-2.924 3.605,-3.928 1.399,-1.005 2.833,-1.758 4.304,-2.259 1.469,-0.503 2.636,-0.861 3.497,-1.076 l 6.887,-1.614 c 2.653,-0.646 4.912,-1.525 6.779,-2.637 1.864,-1.113 2.797,-2.924 2.797,-5.434 0,-1.435 -0.341,-2.69 -1.022,-3.766 -0.683,-1.076 -1.579,-1.955 -2.69,-2.636 -1.113,-0.683 -2.386,-1.184 -3.82,-1.506 -1.436,-0.323 -2.87,-0.485 -4.304,-0.485 -3.013,0 -5.614,0.681 -7.801,2.045 -2.189,1.362 -4,3.191 -5.434,5.488 l -6.133,-4.197 c 2.367,-3.588 5.218,-6.117 8.554,-7.586 3.336,-1.469 6.94,-2.206 10.814,-2.206 2.438,0 4.842,0.288 7.209,0.861 2.368,0.573 4.466,1.488 6.295,2.744 1.829,1.254 3.299,2.868 4.412,4.842 1.111,1.972 1.668,4.321 1.668,7.048 0,3.586 -1.167,6.581 -3.497,8.985 -2.332,2.402 -5.256,3.998 -8.77,4.788 l -7.209,1.722 c -3.301,0.788 -5.776,1.721 -7.425,2.797 -1.651,1.076 -2.475,2.798 -2.475,5.165 0,1.362 0.304,2.51 0.915,3.444 0.608,0.931 1.415,1.703 2.421,2.313 1.004,0.609 2.133,1.058 3.389,1.345 1.255,0.286 2.492,0.43 3.713,0.43 2.582,0 4.769,-0.61 6.563,-1.829 1.793,-1.22 3.228,-2.87 4.304,-4.949 z m -61.441,-11.256 c -3.013,0 -6.331,-0.381 -9.953,-0.667 -3.623,-0.287 -7.031,-1.123 -10.222,-2.27 -3.193,-1.148 -5.848,-2.947 -7.963,-5.278 -2.117,-2.332 -3.174,-5.571 -3.174,-9.66 0,-2.439 0.484,-4.588 1.453,-6.417 0.968,-1.829 2.259,-3.38 3.873,-4.634 1.614,-1.256 3.46,-2.193 5.542,-2.801 2.08,-0.609 4.232,-0.917 6.456,-0.917 4.089,0 7.549,0.824 10.384,2.294 2.833,1.469 5.289,3.35 7.37,7.35 h 0.216 c 0,-2 0.053,-2.673 0.161,-4.107 0.108,-1.436 0.269,-2.893 0.484,-3.893 h 6.887 c -0.215,1 -0.559,2.925 -0.737,5.042 -0.18,2.115 -0.415,3.965 -0.415,5.902 v 22.489 c 0,3.083 -0.357,5.738 -1.361,7.962 -1.005,2.223 -2.259,4.071 -3.908,5.542 -1.651,1.469 -3.569,2.564 -5.828,3.282 -2.26,0.716 -4.592,1.076 -7.03,1.076 -9.469,0 -16.562,-2.44 -21.297,-7.317 l 4.309,-5.058 c 4.375,3.945 9.412,5.918 15.295,5.918 8.608,0 12.82,-4.341 12.82,-13.019 v -0.819 z m 3.362,-6 v -3.942 c 0,-2.224 -0.211,-4.322 -0.82,-6.294 -0.61,-1.974 -1.513,-3.696 -2.804,-5.165 -1.291,-1.471 -2.865,-2.637 -4.765,-3.497 -1.901,-0.861 -4.131,-1.292 -6.713,-1.292 -1.436,0 -2.846,0.162 -4.245,0.485 -1.398,0.322 -2.67,0.86 -3.817,1.614 -1.148,0.753 -2.061,1.721 -2.742,2.905 -0.683,1.183 -1.021,2.599 -1.021,4.25 0,2.51 0.878,4.482 2.636,5.918 1.757,1.434 3.874,2.492 6.349,3.175 2.475,0.68 5.057,1.253 7.747,1.433 2.69,0.178 4.932,0.41 6.726,0.41 z m -46,-2 v 3.116 c 0,3.443 -0.685,6.688 -1.761,9.738 -1.076,3.048 -2.711,5.703 -4.755,7.962 -2.044,2.26 -4.61,4.071 -7.623,5.434 -3.013,1.362 -6.439,2.045 -10.241,2.045 -3.587,0 -6.932,-0.665 -10.016,-1.991 -3.085,-1.328 -5.78,-3.174 -8.075,-5.542 -2.296,-2.367 -4.091,-5.164 -5.382,-8.393 -1.291,-3.228 -1.938,-6.743 -1.938,-10.545 0,-3.803 0.662,-7.317 1.99,-10.545 1.327,-3.228 3.137,-6.025 5.434,-8.393 2.295,-2.367 5.038,-4.215 8.231,-5.541 3.191,-1.327 6.653,-1.991 10.384,-1.991 4.159,0 8.051,0.826 11.674,2.475 3.622,1.649 6.941,4.375 9.954,8.178 l -5.488,4.519 c -1.436,-2.296 -3.534,-4.322 -6.295,-6.079 -2.762,-1.759 -6.044,-2.637 -9.845,-2.637 -2.512,0 -4.843,0.466 -6.995,1.399 -2.152,0.932 -4.053,2.206 -5.703,3.82 -1.651,1.614 -2.977,3.589 -3.981,5.813 -1.005,2.223 -1.614,4.158 -1.829,7.158 z m -42.045,6 c 0,0 0.484,3.938 1.453,5.875 0.968,1.937 2.259,3.583 3.873,5.089 1.614,1.507 3.498,2.669 5.65,3.567 2.152,0.896 4.374,1.326 6.671,1.326 5.165,0 9.181,-1.348 12.051,-4.323 2.869,-2.978 4.305,-6.534 4.305,-11.534 z m -21.955,52 h -7 v -39 h -0.312 c -1.148,1 -2.512,2.996 -4.089,4.217 -1.579,1.219 -3.228,2.125 -4.95,2.915 -1.721,0.789 -3.497,1.314 -5.326,1.673 -1.829,0.358 -3.569,0.514 -5.219,0.514 -3.946,0 -7.55,-0.676 -10.814,-2.003 -3.265,-1.328 -6.079,-3.18 -8.446,-5.547 -2.368,-2.368 -4.215,-5.168 -5.542,-8.397 -1.328,-3.228 -1.991,-6.745 -1.991,-10.546 0,-3.803 0.663,-7.318 1.991,-10.546 1.327,-3.228 3.174,-6.026 5.542,-8.393 2.367,-2.368 5.181,-4.215 8.446,-5.542 3.264,-1.326 6.868,-1.991 10.814,-1.991 1.65,0 3.39,0.18 5.219,0.538 1.829,0.36 3.605,0.932 5.326,1.722 1.722,0.788 3.371,1.773 4.95,2.994 1.577,1.219 2.941,2.392 4.089,4.392 h 0.312 v -8 h 7 z m -44.596,-48.321 c 0.896,2.438 2.169,4.555 3.82,6.349 1.649,1.792 3.64,3.21 5.972,4.25 2.33,1.039 4.966,1.56 7.908,1.56 2.869,0 5.542,-0.521 8.017,-1.56 2.475,-1.04 4.608,-2.458 6.402,-4.25 1.792,-1.794 3.191,-3.911 4.197,-6.349 1.003,-2.439 1.506,-5.057 1.506,-7.855 0,-2.797 -0.503,-5.417 -1.506,-7.855 -1.006,-2.439 -2.405,-4.556 -4.197,-6.348 -1.794,-1.794 -3.927,-3.211 -6.402,-4.25 -2.475,-1.041 -5.148,-1.561 -8.017,-1.561 -2.942,0 -5.578,0.52 -7.908,1.561 -2.332,1.039 -4.323,2.456 -5.972,4.25 -1.651,1.792 -2.924,3.909 -3.82,6.348 -0.898,2.438 -1.345,5.058 -1.345,7.855 0,2.798 0.447,5.416 1.345,7.855 m -24.404,17.321 h -7 v -50 h 7 z m 0.356,23.084 c -1.076,0.969 -2.26,1.453 -3.551,1.453 -1.291,0 -2.475,-0.484 -3.551,-1.453 -1.076,-0.968 -1.614,-2.206 -1.614,-3.712 0,-1.507 0.538,-2.744 1.614,-3.712 1.076,-0.969 2.26,-1.453 3.551,-1.453 1.291,0 2.475,0.484 3.551,1.453 1.076,0.968 1.614,2.205 1.614,3.712 0,1.506 -0.538,2.744 -1.614,3.712" /></g><g
           transform="translate(415.0122,328)"
           id="g68"><path
             id="path70"
             style="fill:#000000;fill-opacity:1;fill-rule:nonzero;stroke:none"
             d="M 0,0 5.865,-10.062 11.614,0 h 0.517 l 3.22,-17 h -2.76 L 10.464,-6.474 6.037,-14 H 5.577 L 1.266,-6.53 -0.689,-17 h -2.818 l 2.989,17 z m -6.012,0 v -2 h -5 v -15 h -3 v 15 h -5 v 2 z" /></g></g></g></g></svg>